# xmcd CD database file
#
# Track frame offsets:
#	150
#	17722
#	42480
#	55337
#	73085
#	88082
#	111452
#	129954
#	153442
#	172975
#	195212
#
# Disc length: 2973 seconds
#
# Revision: 0
# Processed by: cddbd v1.5PL3 Copyright (c) Steve Scherf et al.
# Submitted via: CDex 1.51
#
DISCID=900b9b0b
DTITLE=Various Artist - TRIBUTE TO FLIPPER'S GUITAR
DYEAR=2003
DGENRE=Pop
TTITLE0=GROOVE TUBE - イズミカワソラ
TTITLE1=THE CHIME WILL RING - hurdy gurdy MEETS marseeside derby
TTITLE2=CAMERA! CAMERA! CAMERA! - Roboshop Mania
TTITLE3=YOUNG, ALIVE, IN LOVE - 鈴木秋則 × 磯崎健史
TTITLE4=SUMMER BEAUTY 1990 - bice
TTITLE5=3A.M.OP - LISA
TTITLE6=LOVE AND DREAMS ARE BACK - イノヒロキ
TTITLE7=SENDING TO YOUR HEART - RUMTAG
TTITLE8=COFFEE-MILK CRAZY - SWINGING POPSICLE
TTITLE9=BLUE SHININ' QUICK STAR - Fleming Pie
TTITLE10=AQUAMARINE - イノトモ MEETS lake
EXTD=YEAR: 2003
EXTT0=
EXTT1=
EXTT2=
EXTT3=
EXTT4=
EXTT5=
EXTT6=
EXTT7=
EXTT8=
EXTT9=
EXTT10=
PLAYORDER=
